# xmcd
#
# Track frame offsets:
#	150
#	16880
#	31492
#	49055
#	61570
#	74427
#	94055
#	110382
#	130545
#	134302
#	157122
#	171235
#	187415
#	201362
#	222250
#
# Disc length: 3189 seconds
#
# Revision: 2
# Processed by: cddbd v1.5.2PL0 Copyright (c) Steve Scherf et al.
# Submitted via: audiograbber 1.83.01
#
DISCID=d90c730f
DTITLE=Barefoot Servants - Barefoot Servants 2
DYEAR=2005
DGENRE=BluesRock
TTITLE0=Pharach's House
TTITLE1=I Don't Care At All
TTITLE2=Take My Breath Away
TTITLE3=When The Day Comes
TTITLE4=Rude Boy
TTITLE5=Crazy
TTITLE6=Bells Of St. Mary's
TTITLE7=Brown Penny
TTITLE8=Trick Of Light
TTITLE9=Over Lovin' You
TTITLE10=Monsters In Bethlehem
TTITLE11=Crack The Sky
TTITLE12=Love You Too Much
TTITLE13=Dog Days
TTITLE14=Phases Of The Moon
EXTD=
EXTT0=
EXTT1=
EXTT2=
EXTT3=
EXTT4=
EXTT5=
EXTT6=
EXTT7=
EXTT8=
EXTT9=
EXTT10=
EXTT11=
EXTT12=
EXTT13=
EXTT14=
PLAYORDER=
